<?xml version="1.0" standalone="no"?>
<!DOCTYPE svg PUBLIC "-//W3C//DTD SVG 20010904//EN"
 "http://www.w3.org/TR/2001/REC-SVG-20010904/DTD/svg10.dtd">
<svg version="1.0" xmlns="http://www.w3.org/2000/svg"
 width="920.000000pt" height="920.000000pt" viewBox="0 0 920.000000 920.000000"
 preserveAspectRatio="xMidYMid meet">
<metadata>
Created by potrace 1.11, written by Peter Selinger 2001-2013
</metadata>
<g transform="translate(0.000000,920.000000) scale(0.100000,-0.100000)"
fill="#000000" stroke="none">
<path d="M3520 9191 c-19 -4 -50 -6 -67 -6 -18 0 -33 -3 -33 -6 0 -4 -8 -6
-17 -6 -15 1 -70 -7 -135 -19 -43 -7 -219 -58 -278 -79 -122 -44 -340 -144
-360 -165 -3 -3 -22 -14 -43 -25 -21 -11 -45 -28 -54 -37 -9 -10 -20 -18 -25
-18 -5 0 -34 -19 -66 -42 -81 -61 -90 -69 -138 -113 -24 -22 -56 -51 -71 -65
-39 -35 -144 -150 -168 -183 -11 -16 -30 -41 -43 -55 -33 -40 -33 -39 -97
-142 -54 -88 -149 -277 -160 -320 0 -3 -8 -27 -18 -55 -9 -27 -17 -53 -18 -57
-1 -4 -9 -33 -19 -65 -16 -52 -21 -58 -51 -66 -19 -4 -43 -10 -54 -12 -11 -3
-32 -7 -47 -10 -48 -9 -210 -66 -283 -99 -38 -18 -85 -39 -102 -47 -18 -7 -33
-17 -33 -21 0 -5 -6 -8 -13 -8 -7 0 -44 -20 -81 -45 -38 -25 -71 -45 -73 -45
-2 0 -9 -5 -16 -10 -7 -6 -37 -30 -67 -53 -92 -70 -230 -201 -287 -274 -15
-19 -38 -47 -51 -62 -37 -43 -128 -183 -163 -252 -19 -35 -37 -66 -40 -69 -3
-3 -12 -23 -20 -45 -8 -22 -16 -42 -19 -45 -11 -10 -74 -187 -85 -240 -1 -3
-7 -25 -14 -50 -14 -47 -18 -66 -26 -115 -3 -16 -7 -41 -10 -55 -14 -74 -19
-152 -19 -310 0 -156 4 -215 19 -300 10 -51 15 -108 19 -200 2 -53 7 -112 10
-130 3 -19 8 -51 11 -70 2 -19 7 -46 10 -60 3 -14 8 -38 11 -54 2 -16 7 -32 9
-36 2 -4 7 -21 10 -39 6 -36 57 -188 73 -217 6 -11 11 -23 12 -29 1 -5 8 -25
16 -44 8 -18 14 -37 14 -42 0 -5 5 -9 11 -9 5 0 8 -4 4 -9 -3 -5 -1 -12 4 -15
5 -4 22 -33 38 -66 15 -33 31 -60 35 -60 5 0 8 -7 8 -15 0 -8 3 -15 8 -15 4 0
13 -13 20 -28 6 -16 21 -38 32 -50 11 -12 20 -24 20 -27 0 -24 208 -252 310
-340 52 -45 144 -112 154 -113 5 0 12 -5 15 -10 19 -29 320 -187 396 -207 34
-10 35 -10 55 -18 28 -11 115 -35 170 -48 58 -13 76 -17 125 -23 17 -2 30 -5
30 -6 0 -11 348 -17 435 -7 104 12 261 40 290 52 11 4 24 -14 50 -67 49 -105
184 -318 202 -318 4 0 8 -4 8 -10 0 -13 21 -38 120 -140 100 -103 192 -180
310 -260 94 -63 280 -166 280 -155 0 4 7 1 16 -6 9 -7 21 -14 28 -16 10 -2
149 -53 201 -74 11 -4 34 -10 50 -14 17 -3 48 -10 70 -15 117 -27 170 -36 340
-54 11 -1 26 2 33 7 7 6 12 6 12 0 0 -13 219 -9 330 7 169 23 164 22 287 55
54 15 108 30 121 32 12 3 22 9 22 14 0 5 3 8 8 7 29 -8 377 158 402 192 3 4
16 13 30 20 37 20 160 113 160 122 0 5 5 8 11 8 12 0 197 184 244 242 28 35
32 37 55 25 40 -20 157 -68 172 -71 7 -1 19 -5 26 -9 6 -5 12 -5 12 0 0 4 4 3
8 -4 4 -7 23 -15 42 -18 19 -3 43 -8 52 -11 90 -27 236 -45 368 -46 115 0 235
6 235 12 0 1 18 3 40 6 40 5 187 39 215 51 8 3 23 8 33 9 9 2 46 17 82 33 36
17 65 28 65 26 0 -2 27 12 61 31 33 18 63 34 65 34 5 0 147 92 154 100 3 3 23
18 45 35 42 31 200 186 250 246 80 95 237 369 250 437 2 10 10 35 19 55 21 52
64 248 72 337 4 41 8 120 8 174 1 77 4 101 16 107 97 53 217 134 267 179 12
11 25 20 28 20 15 0 235 233 235 249 0 5 3 11 7 13 12 5 63 75 63 86 0 6 4 12
9 14 9 3 105 186 128 243 72 181 101 350 98 555 -3 149 -7 195 -25 270 -4 19
-9 64 -10 100 -2 112 -9 193 -19 249 -6 29 -8 57 -5 62 3 5 1 9 -4 9 -6 0 -12
15 -15 33 -6 38 -7 43 -35 129 -12 37 -34 94 -49 125 -15 32 -28 61 -28 65 0
4 -6 13 -12 20 -7 6 -13 16 -13 20 0 5 -12 27 -27 51 -53 83 -78 122 -88 133
-5 7 -26 31 -44 55 -50 63 -197 205 -261 252 -30 23 -56 44 -58 49 -2 4 -7 8
-12 8 -5 0 -30 15 -58 33 -45 29 -220 120 -267 138 -91 34 -113 42 -134 45
-13 3 -31 9 -40 13 -9 5 -34 12 -56 16 -22 5 -44 9 -50 11 -51 12 -122 24
-178 29 -21 2 -39 5 -40 7 -1 1 -15 30 -31 63 -16 33 -40 74 -53 91 -13 17
-23 35 -23 39 0 4 -12 24 -27 43 -16 20 -32 43 -38 53 -30 50 -153 178 -245
254 -168 140 -413 256 -610 290 -94 17 -129 21 -144 19 -9 -1 -16 2 -16 7 0 5
-10 5 -22 0 -13 -5 -32 -5 -43 -1 -11 4 -34 6 -50 4 -17 -2 -64 -6 -105 -8
-41 -3 -111 -12 -155 -22 -44 -9 -87 -18 -95 -19 -8 -1 -22 -5 -30 -8 -8 -3
-42 -15 -74 -27 -124 -44 -343 -163 -354 -192 -2 -4 -8 -8 -13 -8 -6 0 -22
-11 -37 -25 -15 -14 -30 -25 -33 -25 -3 0 -27 22 -51 48 -39 41 -112 107 -232
208 -15 13 -30 24 -33 24 -3 0 -22 14 -43 30 -21 17 -41 30 -45 30 -4 0 -21
10 -38 23 -18 12 -42 28 -56 35 -93 49 -127 68 -132 75 -3 5 -9 8 -13 8 -3 -1
-23 6 -44 15 -20 8 -64 26 -97 39 -88 34 -99 38 -105 39 -3 1 -11 5 -17 9 -7
5 -13 6 -13 2 0 -3 -13 1 -30 10 -16 9 -30 13 -30 11 0 -3 -18 1 -40 9 -22 8
-43 14 -45 14 -3 0 -18 2 -33 5 -64 14 -79 17 -107 21 -16 2 -46 7 -65 10 -19
3 -51 8 -70 11 -51 8 -419 12 -460 5z"/>
<path d="M6460 2789 c-91 -11 -190 -36 -241 -61 -24 -12 -50 -23 -58 -24 -8
-2 -18 -9 -22 -16 -5 -7 -9 -8 -9 -3 0 7 -3 7 -8 0 -4 -6 -25 -22 -47 -37
-147 -100 -268 -290 -294 -463 -16 -106 -1 -269 30 -327 6 -11 12 -28 14 -38
2 -10 26 -54 53 -97 27 -44 52 -93 56 -109 10 -43 76 -174 87 -174 5 0 9 -7 9
-15 0 -22 138 -157 205 -201 33 -21 62 -39 65 -40 3 0 28 -11 55 -23 28 -13
57 -24 65 -26 8 -2 16 -4 18 -5 2 -3 6 -4 55 -13 63 -13 111 -19 132 -17 19 1
30 1 58 -1 56 -4 199 23 255 48 21 9 43 15 50 14 6 -1 12 3 12 9 0 5 6 10 12
10 15 0 121 65 156 94 126 108 215 251 247 401 9 40 14 217 7 230 -4 5 -7 22
-8 36 -4 55 -50 168 -96 236 -15 23 -28 46 -28 52 0 6 -4 11 -8 11 -5 0 -14
21 -20 48 -26 100 -131 253 -221 323 -25 19 -49 39 -55 44 -21 19 -131 73
-192 94 -75 25 -103 31 -184 37 -36 3 -69 6 -75 8 -5 1 -39 -1 -75 -5z"/>
<path d="M7800 1289 c-51 -9 -84 -17 -87 -19 -2 -2 -6 -3 -10 -4 -14 -2 -78
-30 -83 -35 -3 -4 -18 -13 -34 -21 -26 -13 -120 -103 -166 -157 -20 -24 -66
-127 -80 -183 -14 -53 -15 -191 -1 -237 5 -18 8 -33 5 -33 -9 0 84 -167 108
-193 14 -15 29 -40 33 -54 3 -15 15 -39 26 -54 10 -15 19 -32 19 -38 0 -6 33
-43 73 -84 87 -88 178 -139 292 -165 54 -12 238 -7 280 8 22 8 42 14 45 15 19
2 113 54 150 83 83 64 170 177 185 239 3 10 12 43 20 73 42 153 -12 359 -126
483 -9 10 -21 35 -28 56 -6 21 -18 44 -26 51 -8 7 -15 18 -15 24 0 20 -104
122 -160 158 -62 40 -146 79 -153 71 -3 -2 -15 1 -27 7 -27 14 -177 20 -240 9z"/>
</g>
</svg>
